<?xml version="1.0" encoding="UTF-8"?><svg id="a" xmlns="http://www.w3.org/2000/svg" width="225.98" height="309.92" viewBox="0 0 225.98 309.92"><path d="M4,70.67c0-18.87,10.82-34.7,32.45-47.49C58.08,10.39,83.92,4,113.98,4s55.15,6.45,76.29,19.34c21.14,12.89,31.71,28.67,31.71,47.33,0,7.55-1.98,14.83-5.94,21.86-3.96,7.02-10.07,13.26-18.33,18.71l-42.15,28.1-20.52-14.31,40.37-25.74c5.94-3.77,10.24-8.12,12.88-13.05,2.64-4.93,3.96-10.12,3.96-15.57,0-13.42-7.68-24.74-23.04-33.97-15.36-9.23-33.77-13.84-55.24-13.84s-40.62,4.56-56.48,13.68c-15.85,9.12-23.78,20.49-23.78,34.12,0,5.24,1.32,10.33,3.96,15.25,2.64,4.93,6.77,9.38,12.38,13.37l147.63,99.38c8.26,5.45,14.37,11.69,18.33,18.71,3.96,7.02,5.94,14.2,5.94,21.54,0,18.87-10.57,34.75-31.71,47.65-21.14,12.89-46.57,19.34-76.29,19.34s-55.9-6.45-77.53-19.34c-21.63-12.89-32.45-28.78-32.45-47.65,0-7.34,1.9-14.57,5.7-21.7,3.8-7.13,9.83-13.31,18.08-18.56l41.75-27.52,20.89,13.93-40.35,25.54c-5.61,3.56-9.74,7.86-12.38,12.89-2.64,5.03-3.96,10.17-3.96,15.41,0,13.63,7.93,25.05,23.78,34.28,15.85,9.23,34.68,13.84,56.48,13.84s39.88-4.67,55.24-14c15.36-9.33,23.04-20.7,23.04-34.12,0-5.24-1.49-10.33-4.46-15.25s-7.27-9.28-12.88-13.05L27.28,111.24c-7.93-5.45-13.79-11.74-17.59-18.87-3.8-7.13-5.7-14.36-5.7-21.7Z" style="fill:#096dd9; stroke:#096dd9; stroke-miterlimit:10; stroke-width:8px;"/></svg>